# xmcd
#
# Track frame offsets:
# 150
# 61605
# 101985
# 140747
# 175572
# 202630
# 244462
#
# Disc length: 3511 seconds
#
#
# Revision: 0
# Processed by: cddbd v1.5.2PL0 Copyright (c) Steve Scherf et al.
# Submitted via: Nero 7, 11, 10, 0 
#
DISCID=5b0db507
DTITLE=Billy Gibson - In A Memphis Tone
DYEAR=1997
DGENRE=Blues
TTITLE0=Chicken Shack
TTITLE1=Straight No Chaser
TTITLE2=Body And Soul
TTITLE3=In A Mellow Tone
TTITLE4=Shortnin'
TTITLE5=Gimme Five
TTITLE6=Ballad For Bill
EXTD=
EXTT0=Chicken Shack
EXTT1=Straight No Chaser
EXTT2=Body And Soul
EXTT3=In A Mellow Tone
EXTT4=Shortnin'
EXTT5=Gimme Five
EXTT6=Ballad For Bill
PLAYORDER=
